<svg width="30" height="30" viewBox="0 0 30 30" fill="none" xmlns="http://www.w3.org/2000/svg">
<circle cx="15" cy="15" r="15" fill="#FF4550"/>
<path d="M15 13.3333C13.9333 13.3333 12.9 13.5 11.9333 13.8133V15.88C11.9333 16.14 11.78 16.3733 11.56 16.48C10.9067 16.8067 10.3133 17.2267 9.78667 17.7133C9.66667 17.8333 9.5 17.9 9.32 17.9C9.13333 17.9 8.96667 17.8267 8.84667 17.7067L7.19333 16.0533C7.07333 15.94 7 15.7733 7 15.5867C7 15.4 7.07333 15.2333 7.19333 15.1133C9.22667 13.1867 11.9733 12 15 12C18.0267 12 20.7733 13.1867 22.8067 15.1133C22.9267 15.2333 23 15.4 23 15.5867C23 15.7733 22.9267 15.94 22.8067 16.06L21.1533 17.7133C21.0333 17.8333 20.8667 17.9067 20.68 17.9067C20.5 17.9067 20.3333 17.8333 20.2133 17.72C19.6867 17.2267 19.0867 16.8133 18.4333 16.4867C18.2133 16.38 18.06 16.1533 18.06 15.8867V13.82C17.1 13.5 16.0667 13.3333 15 13.3333Z" fill="white"/>
</svg>
