<svg width="30" height="30" viewBox="0 0 30 30" fill="none" xmlns="http://www.w3.org/2000/svg">
<g opacity="0.5">
<circle cx="15" cy="15" r="15" fill="white"/>
<path d="M20.4444 15H19.1222C19.1222 15.5756 18.9978 16.1122 18.7878 16.5944L19.7444 17.5511C20.18 16.7889 20.4444 15.9256 20.4444 15ZM17.3178 15.1322C17.3178 15.0856 17.3333 15.0467 17.3333 15V10.3333C17.3333 9.04222 16.2911 8 15 8C13.7089 8 12.6667 9.04222 12.6667 10.3333V10.4733L17.3178 15.1322ZM8.98778 8.77778L8 9.76556L12.6744 14.44V15C12.6744 16.2911 13.7089 17.3333 15 17.3333C15.1711 17.3333 15.3422 17.31 15.5056 17.2711L16.7967 18.5622C16.2444 18.8189 15.63 18.9667 15 18.9667C12.8533 18.9667 10.8778 17.3333 10.8778 15H9.55556C9.55556 17.6522 11.6711 19.8456 14.2222 20.2267V22.7778H15.7778V20.2267C16.4856 20.1256 17.1544 19.8767 17.7533 19.5267L21.0122 22.7778L22 21.79L8.98778 8.77778Z" fill="black"/>
</g>
</svg>
